<svg width="16" height="16" viewBox="0 0 16 16" fill="none" xmlns="http://www.w3.org/2000/svg">
<path d="M8.61539 8.61539C8.61539 8.95525 8.33987 9.23077 8 9.23077C7.66013 9.23077 7.38462 8.95525 7.38462 8.61539C7.38462 8.27552 7.66013 8 8 8C8.33987 8 8.61539 8.27552 8.61539 8.61539Z" fill="#C6C8CA"/>
<path d="M4.30769 11.0769C4.64756 11.0769 4.92308 10.8014 4.92308 10.4615C4.92308 10.1217 4.64756 9.84615 4.30769 9.84615C3.96782 9.84615 3.69231 10.1217 3.69231 10.4615C3.69231 10.8014 3.96782 11.0769 4.30769 11.0769Z" fill="#C6C8CA"/>
<path d="M4.92308 12.3077C4.92308 12.6476 4.64756 12.9231 4.30769 12.9231C3.96782 12.9231 3.69231 12.6476 3.69231 12.3077C3.69231 11.9678 3.96782 11.6923 4.30769 11.6923C4.64756 11.6923 4.92308 11.9678 4.92308 12.3077Z" fill="#C6C8CA"/>
<path d="M6.15385 11.0769C6.49371 11.0769 6.76923 10.8014 6.76923 10.4615C6.76923 10.1217 6.49371 9.84615 6.15385 9.84615C5.81398 9.84615 5.53846 10.1217 5.53846 10.4615C5.53846 10.8014 5.81398 11.0769 6.15385 11.0769Z" fill="#C6C8CA"/>
<path d="M6.76923 12.3077C6.76923 12.6476 6.49371 12.9231 6.15385 12.9231C5.81398 12.9231 5.53846 12.6476 5.53846 12.3077C5.53846 11.9678 5.81398 11.6923 6.15385 11.6923C6.49371 11.6923 6.76923 11.9678 6.76923 12.3077Z" fill="#C6C8CA"/>
<path d="M8 11.0769C8.33987 11.0769 8.61539 10.8014 8.61539 10.4615C8.61539 10.1217 8.33987 9.84615 8 9.84615C7.66013 9.84615 7.38462 10.1217 7.38462 10.4615C7.38462 10.8014 7.66013 11.0769 8 11.0769Z" fill="#C6C8CA"/>
<path d="M8.61539 12.3077C8.61539 12.6476 8.33987 12.9231 8 12.9231C7.66013 12.9231 7.38462 12.6476 7.38462 12.3077C7.38462 11.9678 7.66013 11.6923 8 11.6923C8.33987 11.6923 8.61539 11.9678 8.61539 12.3077Z" fill="#C6C8CA"/>
<path d="M9.84615 11.0769C10.186 11.0769 10.4615 10.8014 10.4615 10.4615C10.4615 10.1217 10.186 9.84615 9.84615 9.84615C9.50629 9.84615 9.23077 10.1217 9.23077 10.4615C9.23077 10.8014 9.50629 11.0769 9.84615 11.0769Z" fill="#C6C8CA"/>
<path d="M10.4615 12.3077C10.4615 12.6476 10.186 12.9231 9.84615 12.9231C9.50629 12.9231 9.23077 12.6476 9.23077 12.3077C9.23077 11.9678 9.50629 11.6923 9.84615 11.6923C10.186 11.6923 10.4615 11.9678 10.4615 12.3077Z" fill="#C6C8CA"/>
<path d="M11.6923 11.0769C12.0322 11.0769 12.3077 10.8014 12.3077 10.4615C12.3077 10.1217 12.0322 9.84615 11.6923 9.84615C11.3524 9.84615 11.0769 10.1217 11.0769 10.4615C11.0769 10.8014 11.3524 11.0769 11.6923 11.0769Z" fill="#C6C8CA"/>
<path d="M10.4615 8.61539C10.4615 8.95525 10.186 9.23077 9.84615 9.23077C9.50629 9.23077 9.23077 8.95525 9.23077 8.61539C9.23077 8.27552 9.50629 8 9.84615 8C10.186 8 10.4615 8.27552 10.4615 8.61539Z" fill="#C6C8CA"/>
<path d="M11.6923 9.23077C12.0322 9.23077 12.3077 8.95525 12.3077 8.61539C12.3077 8.27552 12.0322 8 11.6923 8C11.3524 8 11.0769 8.27552 11.0769 8.61539C11.0769 8.95525 11.3524 9.23077 11.6923 9.23077Z" fill="#C6C8CA"/>
<path fill-rule="evenodd" clip-rule="evenodd" d="M3.69231 0C4.03218 0 4.30769 0.275517 4.30769 0.615385V1.84615H11.6923V0.615385C11.6923 0.275517 11.9678 0 12.3077 0C12.6476 0 12.9231 0.275517 12.9231 0.615385V1.84615H13.5385C14.8979 1.84615 16 2.94822 16 4.30769V13.5385C16 14.8979 14.8979 16 13.5385 16H2.46154C1.10207 16 0 14.8979 0 13.5385V4.30769C0 2.94822 1.10207 1.84615 2.46154 1.84615H3.07692V0.615385C3.07692 0.275517 3.35244 0 3.69231 0ZM14.7692 7.38462C14.7692 6.70488 14.2182 6.15385 13.5385 6.15385H2.46154C1.7818 6.15385 1.23077 6.70488 1.23077 7.38462V13.5385C1.23077 14.2182 1.7818 14.7692 2.46154 14.7692H13.5385C14.2182 14.7692 14.7692 14.2182 14.7692 13.5385V7.38462Z" fill="#C6C8CA"/>
</svg>
