<svg width="17" height="14" viewBox="0 0 17 14" fill="none" xmlns="http://www.w3.org/2000/svg">
<path fill-rule="evenodd" clip-rule="evenodd" d="M1.36534 1.24757L6.47445 6.29731C7.58877 7.39608 9.41027 7.39703 10.5255 6.29731L15.6346 1.24757C15.6467 1.23571 15.656 1.22136 15.6618 1.20555C15.6677 1.18974 15.6699 1.17286 15.6684 1.15609C15.6669 1.13933 15.6617 1.1231 15.6532 1.10855C15.6446 1.094 15.6329 1.08149 15.6189 1.0719C15.0978 0.712857 14.4638 0.5 13.7808 0.5H3.2192C2.5362 0.5 1.90218 0.712894 1.38107 1.0719C1.36707 1.08149 1.35537 1.094 1.34681 1.10855C1.33825 1.1231 1.33303 1.13933 1.33153 1.15609C1.33003 1.17286 1.33228 1.18974 1.33812 1.20555C1.34397 1.22136 1.35326 1.23571 1.36534 1.24757ZM1.02496e-06 3.68037C-0.000414962 3.16729 0.125799 2.66184 0.367708 2.20782C0.376153 2.19181 0.388302 2.178 0.403167 2.16751C0.418031 2.15701 0.435193 2.15013 0.453256 2.14742C0.471319 2.14471 0.489775 2.14625 0.507123 2.15191C0.524471 2.15758 0.540221 2.1672 0.553095 2.18001L5.59753 7.16367C7.19494 8.74413 9.80409 8.74504 11.4025 7.16367L16.4469 2.18001C16.4598 2.1672 16.4755 2.15758 16.4929 2.15191C16.5102 2.14625 16.5287 2.14471 16.5467 2.14742C16.5648 2.15013 16.582 2.15701 16.5968 2.16751C16.6117 2.178 16.6238 2.19181 16.6323 2.20782C16.8742 2.66185 17.0004 3.16729 17 3.68037V10.3196C17 12.0746 15.555 13.5 13.7808 13.5H3.2192C1.44505 13.5 1.02496e-06 12.0746 1.02496e-06 10.3196V3.68037Z" fill="#C6C8CA"/>
</svg>
