<svg width="24" height="24" viewBox="0 0 24 24" fill="none" xmlns="http://www.w3.org/2000/svg">
<g clip-path="url(#clip0_74_4400)">
<path d="M15.3236 17.735C15.0886 17.7348 14.862 17.648 14.6871 17.4912C14.5121 17.3344 14.4011 17.1186 14.3753 16.8851C14.2034 15.3428 13.5636 13.9152 10.0722 13.9152H4.81987C2.71321 13.9152 1 12.2019 1 10.0953V9.14031C1 7.03365 2.71321 5.32044 4.81987 5.32044H10.0722C13.5636 5.32044 14.2034 3.89276 14.3753 2.35049C14.3984 2.1061 14.5162 1.88048 14.7037 1.72196C14.8911 1.56345 15.1332 1.48466 15.378 1.50248C15.6217 1.51615 15.851 1.62263 16.0186 1.80006C16.1863 1.97749 16.2796 2.21238 16.2795 2.45649V16.781C16.2796 17.0251 16.1863 17.26 16.0186 17.4374C15.851 17.6149 15.6217 17.7214 15.378 17.735H15.3236ZM21.6817 15.02C23.1247 13.5771 23.9192 11.6586 23.9192 9.61779C23.9192 7.57703 23.1247 5.6585 21.6817 4.21554C21.5027 4.03648 21.2598 3.93588 21.0066 3.93588C20.7533 3.93588 20.5105 4.03648 20.3314 4.21554C20.1523 4.39461 20.0518 4.63747 20.0518 4.8907C20.0518 5.14394 20.1523 5.3868 20.3314 5.56587C21.4134 6.64784 22.0093 8.08698 22.0093 9.61779C22.0093 11.1486 21.4134 12.5868 20.3314 13.6697C20.2428 13.7584 20.1724 13.8636 20.1244 13.9795C20.0764 14.0953 20.0518 14.2195 20.0518 14.3449C20.0518 14.4703 20.0764 14.5944 20.1244 14.7103C20.1724 14.8261 20.2428 14.9314 20.3314 15.02C20.4201 15.1087 20.5253 15.179 20.6412 15.227C20.757 15.275 20.8812 15.2997 21.0066 15.2997C21.132 15.2997 21.2561 15.275 21.372 15.227C21.4878 15.179 21.5931 15.1087 21.6817 15.02ZM18.8741 12.5983C19.6634 11.8071 20.1066 10.7353 20.1066 9.61779C20.1066 8.50031 19.6634 7.42846 18.8741 6.63734C18.7855 6.54868 18.6802 6.47834 18.5644 6.43036C18.4485 6.38238 18.3244 6.35768 18.199 6.35768C18.0736 6.35768 17.9494 6.38238 17.8336 6.43036C17.7177 6.47834 17.6125 6.54868 17.5238 6.63734C17.4351 6.726 17.3648 6.83126 17.3168 6.94711C17.2688 7.06295 17.2441 7.18711 17.2441 7.3125C17.2441 7.43789 17.2688 7.56205 17.3168 7.6779C17.3648 7.79374 17.4351 7.899 17.5238 7.98767C17.9555 8.42037 18.1979 9.00661 18.1979 9.61779C18.1979 10.229 17.9555 10.8152 17.5238 11.2479C17.4351 11.3366 17.3648 11.4418 17.3168 11.5577C17.2688 11.6735 17.2441 11.7977 17.2441 11.9231C17.2441 12.0485 17.2688 12.1726 17.3168 12.2885C17.3648 12.4043 17.4351 12.5096 17.5238 12.5983C17.6125 12.6869 17.7177 12.7572 17.8336 12.8052C17.9494 12.8532 18.0736 12.8779 18.199 12.8779C18.3244 12.8779 18.4485 12.8532 18.5644 12.8052C18.6802 12.7572 18.7855 12.6869 18.8741 12.5983ZM9.39321 15.8251H4.81987C4.53052 15.8251 4.24785 15.7964 3.96995 15.7554L5.89612 20.0957C6.17013 20.6735 6.6586 21.1217 7.25778 21.3451C7.85696 21.5686 8.51964 21.5496 9.10506 21.2923C9.69048 21.0349 10.1525 20.5595 10.393 19.967C10.6335 19.3744 10.6335 18.7115 10.3931 18.1189L9.39417 15.826L9.39321 15.8251Z" fill="#8353DD"/>
<circle cx="3" cy="3.5" r="3.5" fill="#C80003" stroke="white"/>
</g>
<defs>
<clipPath id="clip0_74_4400">
<rect width="24" height="24" fill="white"/>
</clipPath>
</defs>
</svg>
