<svg width="44" height="44" viewBox="0 0 44 44" fill="none" xmlns="http://www.w3.org/2000/svg">
<rect x="0.25" y="0.25" width="43.5" height="43.5" rx="9.75" stroke="#E2E4E4" stroke-width="0.5"/>
<g clip-path="url(#clip0_74_4441)">
<path d="M25.3236 27.735C25.0886 27.7348 24.862 27.648 24.6871 27.4912C24.5121 27.3344 24.4011 27.1186 24.3753 26.8851C24.2034 25.3428 23.5636 23.9152 20.0722 23.9152H14.8199C12.7132 23.9152 11 22.2019 11 20.0953V19.1403C11 17.0337 12.7132 15.3204 14.8199 15.3204H20.0722C23.5636 15.3204 24.2034 13.8928 24.3753 12.3505C24.3984 12.1061 24.5162 11.8805 24.7037 11.722C24.8911 11.5635 25.1332 11.4847 25.378 11.5025C25.6217 11.5161 25.851 11.6226 26.0186 11.8001C26.1863 11.9775 26.2796 12.2124 26.2795 12.4565V26.781C26.2796 27.0251 26.1863 27.26 26.0186 27.4374C25.851 27.6149 25.6217 27.7214 25.378 27.735H25.3236ZM31.6817 25.02C33.1247 23.5771 33.9192 21.6586 33.9192 19.6178C33.9192 17.577 33.1247 15.6585 31.6817 14.2155C31.5027 14.0365 31.2598 13.9359 31.0066 13.9359C30.7533 13.9359 30.5105 14.0365 30.3314 14.2155C30.1523 14.3946 30.0518 14.6375 30.0518 14.8907C30.0518 15.1439 30.1523 15.3868 30.3314 15.5659C31.4134 16.6478 32.0093 18.087 32.0093 19.6178C32.0093 21.1486 31.4134 22.5868 30.3314 23.6697C30.2428 23.7584 30.1724 23.8636 30.1244 23.9795C30.0764 24.0953 30.0518 24.2195 30.0518 24.3449C30.0518 24.4703 30.0764 24.5944 30.1244 24.7103C30.1724 24.8261 30.2428 24.9314 30.3314 25.02C30.4201 25.1087 30.5253 25.179 30.6412 25.227C30.757 25.275 30.8812 25.2997 31.0066 25.2997C31.132 25.2997 31.2561 25.275 31.372 25.227C31.4878 25.179 31.5931 25.1087 31.6817 25.02ZM28.8741 22.5983C29.6634 21.8071 30.1066 20.7353 30.1066 19.6178C30.1066 18.5003 29.6634 17.4285 28.8741 16.6373C28.7855 16.5487 28.6802 16.4783 28.5644 16.4304C28.4485 16.3824 28.3244 16.3577 28.199 16.3577C28.0736 16.3577 27.9494 16.3824 27.8336 16.4304C27.7177 16.4783 27.6125 16.5487 27.5238 16.6373C27.4351 16.726 27.3648 16.8313 27.3168 16.9471C27.2688 17.063 27.2441 17.1871 27.2441 17.3125C27.2441 17.4379 27.2688 17.5621 27.3168 17.6779C27.3648 17.7937 27.4351 17.899 27.5238 17.9877C27.9555 18.4204 28.1979 19.0066 28.1979 19.6178C28.1979 20.229 27.9555 20.8152 27.5238 21.2479C27.4351 21.3366 27.3648 21.4418 27.3168 21.5577C27.2688 21.6735 27.2441 21.7977 27.2441 21.9231C27.2441 22.0485 27.2688 22.1726 27.3168 22.2885C27.3648 22.4043 27.4351 22.5096 27.5238 22.5983C27.6125 22.6869 27.7177 22.7572 27.8336 22.8052C27.9494 22.8532 28.0736 22.8779 28.199 22.8779C28.3244 22.8779 28.4485 22.8532 28.5644 22.8052C28.6802 22.7572 28.7855 22.6869 28.8741 22.5983ZM19.3932 25.8251H14.8199C14.5305 25.8251 14.2478 25.7964 13.9699 25.7554L15.8961 30.0957C16.1701 30.6735 16.6586 31.1217 17.2578 31.3451C17.857 31.5686 18.5196 31.5496 19.1051 31.2923C19.6905 31.0349 20.1525 30.5595 20.393 29.967C20.6335 29.3744 20.6335 28.7115 20.3931 28.1189L19.3942 25.826L19.3932 25.8251Z" fill="#8353DD"/>
<circle cx="13" cy="13.5" r="3.5" fill="#C80003" stroke="white"/>
</g>
<defs>
<clipPath id="clip0_74_4441">
<rect width="24" height="24" fill="white" transform="translate(10 10)"/>
</clipPath>
</defs>
</svg>
