<svg width="12" height="12" viewBox="0 0 12 12" fill="none" xmlns="http://www.w3.org/2000/svg">
<path d="M6 0C2.6915 0 0 2.70028 0 6.01956C0.3015 13.9945 11.7 13.9925 12 6.01956C12 2.70028 9.3085 0 6 0ZM6.5 8.52772V9.02935C6.4975 9.68548 5.5025 9.68498 5.5 9.02935V8.52772H5.366C5.10285 8.52725 4.84442 8.45758 4.61649 8.32564C4.38856 8.1937 4.1991 8.0041 4.067 7.77577C4.03191 7.71871 4.00858 7.65517 3.99838 7.5889C3.98818 7.52264 3.99133 7.45499 4.00764 7.38997C4.02395 7.32495 4.05309 7.26387 4.09333 7.21033C4.13357 7.1568 4.1841 7.11191 4.24193 7.0783C4.29976 7.0447 4.36372 7.02306 4.43003 7.01468C4.49634 7.0063 4.56365 7.01134 4.62798 7.02951C4.69231 7.04767 4.75236 7.07859 4.80458 7.12043C4.8568 7.16228 4.90013 7.2142 4.932 7.27314C5.0215 7.42864 5.1875 7.52445 5.3655 7.52445H6.4995C6.998 7.55706 7.221 6.74693 6.6775 6.64159L5.157 6.38726C3.406 6.0617 3.783 3.50138 5.4995 3.51141V3.00978C5.5025 2.35365 6.497 2.35415 6.4995 3.00978V3.51141H6.6335C7.167 3.51141 7.665 3.79985 7.9325 4.26386C7.96819 4.32094 7.99205 4.38465 8.00266 4.45119C8.01327 4.51772 8.01041 4.58572 7.99425 4.65112C7.97809 4.71653 7.94896 4.77799 7.9086 4.83185C7.86824 4.88572 7.81748 4.93087 7.75935 4.96461C7.70122 4.99836 7.6369 5.02001 7.57024 5.02827C7.50359 5.03653 7.43596 5.03124 7.37138 5.0127C7.30681 4.99416 7.24662 4.96276 7.19441 4.92037C7.1422 4.87799 7.09904 4.82548 7.0675 4.76599C7.02342 4.6898 6.96019 4.62654 6.88412 4.58253C6.80805 4.53851 6.72181 4.51529 6.634 4.51517H5.5C5.0015 4.48257 4.779 5.2927 5.322 5.39804L6.8425 5.65237C8.5935 5.97793 8.2165 8.53775 6.5 8.52772Z" fill="#8353DD"/>
</svg>
