<svg width="13" height="16" viewBox="0 0 13 16" fill="none" xmlns="http://www.w3.org/2000/svg">
<path fill-rule="evenodd" clip-rule="evenodd" d="M6.43207 0C5.37121 0 4.35379 0.421427 3.60365 1.17157C2.8535 1.92172 2.43207 2.93913 2.43207 4C2.43207 5.06087 2.8535 6.07828 3.60365 6.82843C4.35379 7.57857 5.37121 8 6.43207 8C7.49294 8 8.51035 7.57857 9.2605 6.82843C10.0106 6.07828 10.4321 5.06087 10.4321 4C10.4321 2.93913 10.0106 1.92172 9.2605 1.17157C8.51035 0.421427 7.49294 0 6.43207 0ZM4.03207 8.8C2.70167 8.8 1.42247 9.4064 0.672873 10.32C0.292873 10.784 0.0248727 11.3576 0.00167271 11.9936C-0.0223273 12.6432 0.212073 13.2768 0.696073 13.8296C1.87367 15.1776 3.75447 16 6.43207 16C9.10967 16 10.9905 15.1776 12.1681 13.8296C12.6521 13.2768 12.8865 12.6432 12.8625 11.9936C12.8385 11.3576 12.5721 10.784 12.1905 10.32C11.4425 9.408 10.1633 8.8 8.83207 8.8H4.03207Z" fill="#C6C8CA"/>
</svg>
