<svg width="12" height="12" viewBox="0 0 12 12" fill="none" xmlns="http://www.w3.org/2000/svg">
<path d="M9.40746 6.70922C8.886 6.70922 8.46546 6.7947 8.12618 6.94075C7.79951 6.6835 7.48238 6.41346 7.17545 6.13123C7.40455 5.87761 7.63745 5.60645 7.86927 5.31774C9.56836 3.20505 10.3593 1.25766 10.3925 1.17614C10.4338 1.07333 10.4552 0.963085 10.4554 0.851707C10.4556 0.740329 10.4347 0.629998 10.3938 0.527016C10.3529 0.424033 10.2929 0.330416 10.2172 0.251511C10.1414 0.172607 10.0514 0.10996 9.95236 0.0671484C9.75225 -0.0193632 9.52727 -0.0200381 9.32668 0.0652715C9.12609 0.150581 8.96625 0.314921 8.88218 0.522294C8.87455 0.539843 8.14418 2.32533 6.61309 4.23026C6.41555 4.47573 6.21128 4.71529 6.00055 4.94864C5.79764 4.7239 5.592 4.48444 5.388 4.23026C3.85636 2.32533 3.12655 0.539843 3.11891 0.522294C3.03537 0.314426 2.87568 0.149515 2.67498 0.0638404C2.47428 -0.0218345 2.24901 -0.0212554 2.04873 0.0654501C1.84844 0.152156 1.68954 0.317885 1.60699 0.52618C1.52444 0.734475 1.525 0.968273 1.60855 1.17614C1.64182 1.25823 2.43273 3.20505 4.13182 5.31774C4.36364 5.60645 4.59655 5.87761 4.82564 6.13123C4.44327 6.48164 4.11273 6.75394 3.87491 6.94075C3.53618 6.7947 3.11509 6.70922 2.59364 6.70922C0.45 6.70922 0 8.14768 0 9.35461C0 10.5615 0.45 12 2.59364 12C4.73727 12 5.18673 10.5615 5.18673 9.35461C5.18673 8.96909 5.14036 8.55924 5.00782 8.18108C5.27727 7.96483 5.61764 7.67725 6 7.3223C6.38182 7.67725 6.72273 7.96483 6.99218 8.18108C6.85964 8.5598 6.81327 8.96909 6.81327 9.35461C6.81327 10.5615 7.26327 12 9.40636 12C11.5495 12 12 10.5615 12 9.35461C12 8.14768 11.55 6.70922 9.40636 6.70922H9.40746ZM2.59473 10.3017C1.79836 10.3017 1.63745 10.1426 1.63745 9.35461C1.63745 8.5666 1.79836 8.40752 2.59473 8.40752C3.39109 8.40752 3.55145 8.5666 3.55145 9.35461C3.55145 10.1426 3.39055 10.3017 2.59473 10.3017ZM9.40746 10.3017C8.61164 10.3017 8.45073 10.1426 8.45073 9.35461C8.45073 8.5666 8.61164 8.40752 9.40746 8.40752C10.2033 8.40752 10.3647 8.5666 10.3647 9.35461C10.3647 10.1426 10.2038 10.3017 9.40746 10.3017Z" fill="#8353DD"/>
</svg>
