<svg width="39" height="49" viewBox="0 0 39 49" fill="none" xmlns="http://www.w3.org/2000/svg">
<path fill-rule="evenodd" clip-rule="evenodd" d="M16.921 0.422397C8.66033 2.52169 3.41821 10.3494 4.28044 19.2717C4.48458 21.3942 5.07496 23.6987 5.39246 23.6987C5.50582 23.6987 5.93719 23.5389 6.36805 23.379L7.16258 23.037L6.73172 21.371C6.39113 20.0706 6.32292 19.2036 6.39113 17.4236C6.61785 13.1564 8.09303 9.59635 10.8382 6.8126C13.3572 4.25683 16.0126 2.9792 19.598 2.59132C21.8215 2.34013 23.2962 3.22988 21.1409 3.50428C14.0609 4.41673 9.63591 8.15883 8.04738 14.5939C7.45751 17.0357 7.66166 22.5578 8.36539 22.5578C8.66033 22.5578 14.9463 20.801 16.0121 20.4126C19.1666 19.2949 22.2529 17.241 24.7262 14.6398C27.5853 11.6276 28.7199 8.638 28.4932 4.71331C28.3342 1.74696 28.13 1.35908 26.2917 0.674622C24.1815 -0.101652 19.4841 -0.238338 16.9205 0.423429L16.921 0.422397ZM22.7069 6.65219C23.0249 7.15457 22.9115 7.24535 21.822 7.35986C18.1008 7.81634 16.5574 8.4549 14.4472 10.4175C12.337 12.4255 11.4065 14.3195 10.8618 17.7423C10.5212 19.8189 10.1355 19.4764 10.1355 17.1265C10.1355 14.2968 11.4065 11.5352 13.6532 9.39055C15.5818 7.56515 17.3514 6.69809 19.9386 6.33291C21.4138 6.15032 22.4571 6.26431 22.7069 6.6527V6.65219ZM31.3076 3.54916C31.3528 3.64045 31.7159 4.34761 32.1242 5.10067C33.3727 7.51976 33.8717 9.57314 33.8717 12.4028C33.8943 16.1681 33.0547 18.8606 30.6947 22.5119C28.2665 26.2994 24.5908 29.4488 18.0325 33.4189C15.0601 35.1989 13.131 37.093 12.178 39.1236C10.7485 42.2272 11.384 45.7413 13.7665 47.544C15.2412 48.685 16.8297 49.0961 19.3487 48.9815C20.9824 48.9135 21.6861 48.7536 22.7299 48.2744C23.4562 47.9319 24.0235 47.544 23.9779 47.4073C23.9327 47.2474 23.4332 46.9962 22.8659 46.8369C21.6405 46.4717 20.1427 45.2167 19.6211 44.1444C19.1671 43.2088 19.1441 41.748 19.5529 40.7443C20.075 39.5115 21.5271 38.4624 25.2484 36.5911L28.8112 34.8116L30.9219 35.085C34.3483 35.5641 35.2105 35.1077 35.5511 32.6432C35.687 31.6621 35.9142 31.0458 36.2769 30.6579C36.6174 30.2932 36.7539 29.9507 36.6626 29.5855C36.5718 29.289 36.6626 28.9238 36.8898 28.6726C37.1847 28.3533 37.1847 28.148 36.9806 27.5316C36.7308 26.8018 36.7308 26.7559 37.8654 25.7975C38.4783 25.2497 39 24.7247 39 24.6339C39 24.5426 38.4783 23.8581 37.8428 23.1278L37.5961 22.843C36.7477 21.8656 36.3374 21.3926 36.1912 20.8479C36.0543 20.3373 36.1497 19.7648 36.3343 18.6537L36.3907 18.3133C36.9124 15.2779 36.6626 12.4487 35.5736 9.43646C34.8248 7.38256 32.6915 4.11963 31.7159 3.61724C31.4441 3.45734 31.262 3.43516 31.3076 3.54916ZM25.3843 16.1903C28.4024 13.0867 29.8545 10.1658 30.0817 6.74297C30.1494 5.78462 30.2407 4.98617 30.2859 4.98617C30.5126 4.98617 31.7836 7.88391 32.0786 9.02485C32.7818 11.6951 32.3735 15.5285 31.0573 18.5635C30.3541 20.2295 28.2434 23.3098 26.6549 24.9986C24.817 27.0066 22.1847 29.0145 19.0307 30.8859C17.6007 31.7524 15.7854 32.8939 15.014 33.4416C10.453 36.6819 8.70546 41.6108 10.5438 46.0147C10.7254 46.448 10.8613 46.8817 10.8613 46.9962C10.8613 47.4068 10.0216 47.1783 9.02348 46.5398C7.57087 45.6041 6.48192 44.4173 5.73305 42.9117C5.14318 41.7248 5.07496 41.4055 5.07496 39.2144C5.07496 37.0233 5.14267 36.7046 5.75562 35.4491C6.11877 34.696 6.981 33.5329 7.63909 32.8712C9.0004 31.5249 10.4074 30.7487 14.1061 29.3111C18.4634 27.6224 20.7777 26.2535 23.1834 23.9716C24.3857 22.808 24.7488 22.0776 24.2723 21.781C24.1815 21.7124 23.1377 22.3742 21.958 23.2644C19.1441 25.3864 17.6463 26.2076 13.8111 27.691C12.0415 28.3987 10.0216 29.2657 9.3179 29.6077C6.71295 30.9376 4.73871 33.2519 3.82804 36.0433C3.39666 37.2982 3.32844 37.8228 3.4418 39.7627L3.55567 41.9992L2.67036 41.1322C2.17128 40.6298 1.37727 39.4888 0.923326 38.5764C0.219589 37.1157 0.106232 36.6138 0.0154439 34.9251C-0.143564 31.7307 0.923325 29.243 3.30587 27.1211C5.07547 25.5695 8.00327 24.3141 12.6776 23.1278C18.2146 21.7129 22.0498 19.6136 25.3854 16.1903H25.3843Z" fill="#8353DD"/>
</svg>
