<svg width="20" height="17" viewBox="0 0 20 17" fill="none" xmlns="http://www.w3.org/2000/svg">
<path fill-rule="evenodd" clip-rule="evenodd" d="M4 0.5C1.79086 0.5 0 2.29086 0 4.5V12.5C0 14.7091 1.79086 16.5 4 16.5H16C18.2091 16.5 20 14.7091 20 12.5V4.5C20 2.29086 18.2091 0.5 16 0.5H4ZM10 10.5C11.1046 10.5 12 9.60457 12 8.5C12 7.39543 11.1046 6.5 10 6.5C8.89543 6.5 8 7.39543 8 8.5C8 9.60457 8.89543 10.5 10 10.5ZM4.5 4C4.5 4.55228 4.05228 5 3.5 5C2.94772 5 2.5 4.55228 2.5 4C2.5 3.44772 2.94772 3 3.5 3C4.05228 3 4.5 3.44772 4.5 4ZM16.5 5C17.0523 5 17.5 4.55228 17.5 4C17.5 3.44772 17.0523 3 16.5 3C15.9477 3 15.5 3.44772 15.5 4C15.5 4.55228 15.9477 5 16.5 5ZM4.5 13C4.5 13.5523 4.05228 14 3.5 14C2.94772 14 2.5 13.5523 2.5 13C2.5 12.4477 2.94772 12 3.5 12C4.05228 12 4.5 12.4477 4.5 13ZM16.5 14C17.0523 14 17.5 13.5523 17.5 13C17.5 12.4477 17.0523 12 16.5 12C15.9477 12 15.5 12.4477 15.5 13C15.5 13.5523 15.9477 14 16.5 14Z" fill="#A6A6A6"/>
</svg>
