<svg width="35" height="35" viewBox="0 0 35 35" fill="none" xmlns="http://www.w3.org/2000/svg">
<path d="M0 35V3.5C0 2.5375 0.342708 1.71354 1.02812 1.02812C1.71354 0.342708 2.5375 0 3.5 0H31.5C32.4625 0 33.2865 0.342708 33.9719 1.02812C34.6573 1.71354 35 2.5375 35 3.5V24.5C35 25.4625 34.6573 26.2865 33.9719 26.9719C33.2865 27.6573 32.4625 28 31.5 28H7L0 35ZM12.3812 21.4375L17.5 18.3312L22.6187 21.4375L21.2625 15.6187L25.8125 11.6812L19.8188 11.2L17.5 5.6875L15.1812 11.2L9.1875 11.6812L13.7375 15.6187L12.3812 21.4375Z" fill="#737373"/>
</svg>
